<svg width="512" height="512" xmlns="http://www.w3.org/2000/svg">
 <g>
  <path fill="#ffffff" class="icon" d="m503.466,132.268l-123.733,-123.734c-11.38,-11.379 -29.854,-11.379 -41.234,0l-123.732,123.734c-11.411,11.379 -11.411,29.854 0,41.265l20.602,20.601l123.732,-123.733l82.499,82.499l-123.734,123.733l20.632,20.633c11.38,11.379 29.854,11.379 41.234,0l123.732,-123.732c11.381,-11.412 11.381,-29.888 0.002,-41.266z"/>
  <path fill="#ffffff" class="icon" d="m276.633,317.866l-123.733,123.734l-82.499,-82.498l123.732,-123.733l-20.632,-20.632c-11.379,-11.38 -29.854,-11.38 -41.233,0l-123.734,123.731c-11.38,11.41 -11.38,29.886 0,41.265l123.732,123.733c11.379,11.379 29.854,11.379 41.233,0l123.732,-123.733c11.41,-11.379 11.41,-29.854 0,-41.265l-20.598,-20.602z"/>
  <path fill="#ffffff" class="icon" d="m173.501,338.468c11.411,11.41 29.854,11.41 41.266,0l123.731,-123.732c11.38,-11.38 11.38,-29.824 0,-41.203c-11.409,-11.41 -29.854,-11.41 -41.265,0l-123.732,123.733c-11.379,11.379 -11.379,29.823 0,41.202z"/>
 </g>
</svg>
